<svg width="17" height="19" viewBox="0 0 17 19" fill="none" xmlns="http://www.w3.org/2000/svg">
<path d="M8.5 19C6.28333 19 4.396 18.2293 2.838 16.688C1.27933 15.146 0.5 13.2833 0.5 11.1C0.5 10 0.704333 8.979 1.113 8.037C1.521 7.09567 2.1 6.26667 2.85 5.55L8.5 0L14.15 5.55C14.9 6.26667 15.4793 7.09567 15.888 8.037C16.296 8.979 16.5 10 16.5 11.1C16.5 13.2833 15.721 15.146 14.163 16.688C12.6043 18.2293 10.7167 19 8.5 19ZM2.525 10.5H14.475C14.4083 9.81667 14.2293 9.18333 13.938 8.6C13.646 8.01667 13.25 7.48333 12.75 7L8.5 2.8L4.25 7C3.75 7.48333 3.354 8.01667 3.062 8.6C2.77067 9.18333 2.59167 9.81667 2.525 10.5Z" fill="#EAEAEA"/>
</svg>
